<svg width="1820" height="185" viewBox="0 0 1820 185" fill="none" xmlns="http://www.w3.org/2000/svg">
<path d="M97.8424 75.8764L71.4026 66.1161C62.5307 62.7565 55.1667 59.3232 55.1667 51.0834C55.1667 39.4839 69.4171 38.2332 75.5495 38.2332C87.5882 38.2332 103.07 45.1243 113.173 55.0071L115.637 57.4104L136.321 24.3776L134.788 22.8817C121.668 10.056 97.189 0.761719 76.58 0.761719C42.7259 0.761719 8.54519 17.5601 8.54519 55.0807C8.54519 78.8682 20.9608 94.4895 47.5766 104.225L72.8854 113.495C80.1991 116.168 91.2576 120.214 91.2576 129.803C91.2576 140.937 80.4756 144.909 70.3721 144.909C56.926 144.909 37.9004 135.885 26.1131 123.917L23.7506 121.539L0 155.773L1.73417 157.343C10.6312 165.411 34.7337 184.122 66.5519 184.122C101.034 184.122 138.156 165.877 138.156 125.781C138.156 102.288 124.584 85.514 97.8173 75.8764H97.8424Z" fill="black"/>
<path d="M205.285 2.76953H158.413V181.127H252.008V142.16H205.285V2.76953Z" fill="black"/>
<path d="M357.641 0C300.64 0 260.854 37.9129 260.854 92.1828C260.854 146.453 300.665 184.12 357.641 184.12C414.618 184.12 454.428 146.306 454.428 92.1828C454.428 38.0601 414.618 0 357.641 0ZM357.641 142.652C328.713 142.652 308.481 121.488 308.481 91.1774C308.481 60.8667 328.236 39.9483 357.641 39.9483C387.047 39.9483 406.801 61.0138 406.801 91.1774C406.801 121.341 386.594 142.652 357.641 142.652Z" fill="black"/>
<path d="M522.84 108.17H577.529V70.4537H522.84V40.4618H581.626V2.76953H475.967V181.127H583.938V142.895H522.84V108.17Z" fill="black"/>
<path d="M856.58 75.8753L830.14 66.115C821.268 62.7554 813.904 59.3221 813.904 51.0823C813.904 39.4828 828.154 38.2321 834.287 38.2321C846.326 38.2321 861.807 45.1232 871.911 55.006L874.374 57.4093L895.058 24.3765L893.525 22.8806C880.406 10.0795 855.926 0.785156 835.317 0.785156C801.463 0.785156 767.308 17.5836 767.308 55.1286C767.308 78.9162 779.723 94.5375 806.339 104.273L831.648 113.543C838.962 116.216 850.02 120.262 850.02 129.851C850.02 140.984 839.238 144.957 829.135 144.957C815.688 144.957 796.663 135.933 784.876 123.965L782.513 121.587L758.737 155.821L760.471 157.391C769.368 165.459 793.471 184.17 825.289 184.17C859.772 184.17 896.893 165.925 896.893 125.829C896.893 102.336 883.321 85.562 856.555 75.9243L856.58 75.8753Z" fill="black"/>
<path d="M906.77 40.2165H945.173V181.127H992.297V40.2165H1030.7V2.76953H906.77V40.2165Z" fill="black"/>
<path d="M1155.08 106.233C1155.08 118.348 1154.03 127.127 1148.8 133.331C1143.15 139.854 1135.3 143.165 1125.45 143.165C1115.6 143.165 1107.78 139.854 1102.13 133.356C1096.88 127.102 1095.82 118.348 1095.82 106.233V2.76953H1048.44V106.233C1048.44 132.473 1053.65 149.296 1065.89 162.489C1079.61 176.688 1099.64 183.898 1125.45 183.898C1151.26 183.898 1171.52 176.492 1184.77 162.465C1197.16 149.369 1202.46 132.571 1202.46 106.233V2.76953H1155.08V106.233Z" fill="black"/>
<path d="M1361.02 24.2028C1349.36 14.4181 1327.72 2.76953 1290.9 2.76953H1228.02V181.127H1290.9C1327.55 181.127 1349.26 169.601 1361.02 159.939C1380.75 143.656 1390.78 120.8 1390.78 91.9605C1390.78 63.1212 1380.78 40.1675 1361.02 24.2274V24.2028ZM1293.21 141.399H1274.89V41.7124H1293.21C1312.69 41.7124 1323.57 48.9468 1328.3 53.2384C1338.15 62.5081 1343.13 75.53 1343.13 91.9115C1343.13 108.293 1338.28 120.506 1328.32 129.555H1328.27C1320.21 137.181 1307.74 141.375 1293.19 141.375L1293.21 141.399Z" fill="black"/>
<path d="M1459.42 2.76953H1412.29V181.127H1459.42V2.76953Z" fill="black"/>
<path d="M1577.77 0C1520.77 0 1480.98 37.9129 1480.98 92.1828C1480.98 146.453 1520.79 184.12 1577.77 184.12C1634.75 184.12 1674.56 146.306 1674.56 92.1828C1674.56 38.0601 1634.75 0 1577.77 0ZM1577.77 142.652C1548.84 142.652 1528.61 121.488 1528.61 91.1774C1528.61 60.8667 1548.36 39.9483 1577.77 39.9483C1607.17 39.9483 1626.93 61.0138 1626.93 91.1774C1626.93 121.341 1606.72 142.652 1577.77 142.652Z" fill="black"/>
<path d="M1779.71 75.8753L1753.27 66.1151C1744.4 62.7554 1737.04 59.3221 1737.04 51.0823C1737.04 39.4828 1751.29 38.2321 1757.39 38.2321C1769.43 38.2321 1784.91 45.1232 1795.02 55.006L1797.48 57.4093L1818.17 24.3765L1816.63 22.8806C1803.51 10.0795 1779.03 0.785156 1758.42 0.785156C1724.57 0.785156 1690.41 17.5836 1690.41 55.1286C1690.41 78.9162 1702.83 94.5375 1729.45 104.273L1754.75 113.543C1762.07 116.216 1773.13 120.262 1773.13 129.851C1773.13 140.984 1762.34 144.957 1752.24 144.957C1738.8 144.957 1719.77 135.933 1707.98 123.965L1705.62 121.587L1681.84 155.821L1683.58 157.391C1692.48 165.459 1716.58 184.17 1748.4 184.17C1782.88 184.17 1820 165.925 1820 125.829C1820 102.336 1806.43 85.562 1779.66 75.9243L1779.71 75.8753Z" fill="black"/>
</svg>
