<svg width="10" height="10" viewBox="0 0 10 10" fill="none" xmlns="http://www.w3.org/2000/svg">
<path d="M9.5 1C9.5 0.723858 9.27614 0.500001 9 0.500001L4.5 0.5C4.22386 0.5 4 0.723857 4 1C4 1.27614 4.22386 1.5 4.5 1.5L8.5 1.5L8.5 5.5C8.5 5.77614 8.72386 6 9 6C9.27614 6 9.5 5.77614 9.5 5.5L9.5 1ZM0.646446 8.64645C0.451183 8.84171 0.451183 9.15829 0.646445 9.35355C0.841708 9.54881 1.15829 9.54881 1.35355 9.35355L0.646446 8.64645ZM8.64645 0.646447L0.646446 8.64645L1.35355 9.35355L9.35355 1.35355L8.64645 0.646447Z" fill="#191612"/>
</svg>
